<svg width="12" height="12" viewBox="0 0 12 12" fill="none" xmlns="http://www.w3.org/2000/svg">
<path d="M10.6924 3.6046H1.2513C1.155 3.6046 1.06264 3.64854 0.994539 3.72675C0.926441 3.80497 0.888184 3.91105 0.888184 4.02166L0.888184 4.85579C0.888184 4.96641 0.926441 5.07249 0.994539 5.1507C1.06264 5.22892 1.155 5.27286 1.2513 5.27286H10.6924C10.7887 5.27286 10.8811 5.22892 10.9492 5.1507C11.0173 5.07249 11.0555 4.96641 11.0555 4.85579V4.02166C11.0555 3.91105 11.0173 3.80497 10.9492 3.72675C10.8811 3.64854 10.7887 3.6046 10.6924 3.6046ZM10.6924 10.2777H1.2513C1.155 10.2777 1.06264 10.3216 0.994539 10.3998C0.926441 10.478 0.888184 10.5841 0.888184 10.6947L0.888184 11.5289C0.888184 11.6395 0.926441 11.7455 0.994539 11.8238C1.06264 11.902 1.155 11.9459 1.2513 11.9459H10.6924C10.7887 11.9459 10.8811 11.902 10.9492 11.8238C11.0173 11.7455 11.0555 11.6395 11.0555 11.5289V10.6947C11.0555 10.5841 11.0173 10.478 10.9492 10.3998C10.8811 10.3216 10.7887 10.2777 10.6924 10.2777ZM3.34151 1.93633H8.60242C8.63847 1.93633 8.67417 1.92817 8.70747 1.91232C8.74078 1.89646 8.77103 1.87323 8.79652 1.84393C8.822 1.81464 8.8422 1.77987 8.85598 1.74161C8.86976 1.70334 8.87683 1.66233 8.8768 1.62092V0.583212C8.8768 0.541827 8.8697 0.500846 8.85591 0.462611C8.84213 0.424376 8.82191 0.389635 8.79644 0.360371C8.77096 0.331107 8.74071 0.307893 8.70742 0.292056C8.67413 0.276218 8.63845 0.268067 8.60242 0.268067H3.34151C3.30545 0.268032 3.26975 0.276158 3.23643 0.291981C3.20312 0.307803 3.17284 0.331011 3.14734 0.360278C3.12184 0.389546 3.10161 0.424299 3.08781 0.462551C3.074 0.500803 3.0669 0.541805 3.0669 0.583212V1.62092C3.0669 1.70458 3.09583 1.7848 3.14733 1.84395C3.19883 1.9031 3.26868 1.93633 3.34151 1.93633ZM8.60242 8.60939C8.63847 8.60939 8.67417 8.60123 8.70747 8.58537C8.74078 8.56952 8.77103 8.54628 8.79652 8.51699C8.822 8.4877 8.8422 8.45293 8.85598 8.41466C8.86976 8.3764 8.87683 8.33539 8.8768 8.29398V7.25627C8.8768 7.17269 8.84789 7.09253 8.79644 7.03343C8.74498 6.97433 8.67519 6.94112 8.60242 6.94112H3.34151C3.30545 6.94109 3.26975 6.94922 3.23643 6.96504C3.20312 6.98086 3.17284 7.00407 3.14734 7.03334C3.12184 7.0626 3.10161 7.09736 3.08781 7.13561C3.074 7.17386 3.0669 7.21486 3.0669 7.25627V8.29398C3.0669 8.3354 3.074 8.37642 3.0878 8.41468C3.1016 8.45295 3.12183 8.48772 3.14733 8.51701C3.17283 8.5463 3.2031 8.56953 3.23642 8.58538C3.26973 8.60123 3.30544 8.60939 3.34151 8.60939H8.60242Z" fill="black"/>
</svg>
