<svg width="12" height="12" viewBox="0 0 12 12" fill="none" xmlns="http://www.w3.org/2000/svg">
<path d="M1.14762 8.60939H7.10141C7.13966 8.60942 7.17753 8.6008 7.21287 8.584C7.24821 8.56721 7.28033 8.54257 7.30737 8.51151C7.33441 8.48045 7.35586 8.44357 7.37048 8.40298C7.38511 8.36239 7.39262 8.31888 7.39259 8.27496V7.27556C7.39262 7.23163 7.38511 7.18813 7.37048 7.14754C7.35586 7.10695 7.33441 7.07006 7.30737 7.039C7.28033 7.00794 7.24821 6.98331 7.21287 6.96651C7.17753 6.94972 7.13966 6.94109 7.10141 6.94113H1.14762C1.10938 6.94109 1.0715 6.94972 1.03616 6.96651C1.00082 6.98331 0.968706 7.00794 0.941662 7.039C0.914618 7.07006 0.893171 7.10695 0.878549 7.14754C0.863927 7.18813 0.856416 7.23163 0.856445 7.27556V8.27496C0.856416 8.31888 0.863927 8.36239 0.878549 8.40298C0.893171 8.44357 0.914618 8.48045 0.941662 8.51151C0.968706 8.54257 1.00082 8.56721 1.03616 8.584C1.0715 8.6008 1.10938 8.60942 1.14762 8.60939ZM1.14762 1.93633H7.10141C7.13966 1.93637 7.17753 1.92774 7.21287 1.91094C7.24821 1.89415 7.28033 1.86952 7.30737 1.83845C7.33441 1.80739 7.35586 1.77051 7.37048 1.72992C7.38511 1.68933 7.39262 1.64582 7.39259 1.6019V0.602501C7.39262 0.558573 7.38511 0.515069 7.37048 0.474478C7.35586 0.433887 7.33441 0.397006 7.30737 0.365944C7.28033 0.334882 7.24821 0.310249 7.21287 0.293454C7.17753 0.276659 7.13966 0.268032 7.10141 0.268067H1.14762C1.10938 0.268032 1.0715 0.276659 1.03616 0.293454C1.00082 0.310249 0.968706 0.334882 0.941662 0.365944C0.914618 0.397006 0.893171 0.433887 0.878549 0.474478C0.863927 0.515069 0.856416 0.558573 0.856445 0.602501V1.6019C0.856416 1.64582 0.863927 1.68933 0.878549 1.72992C0.893171 1.77051 0.914618 1.80739 0.941662 1.83845C0.968706 1.86952 1.00082 1.89415 1.03616 1.91094C1.0715 1.92774 1.10938 1.93637 1.14762 1.93633ZM10.6607 3.6046H1.21956C1.12326 3.6046 1.0309 3.64854 0.9628 3.72675C0.894702 3.80497 0.856445 3.91105 0.856445 4.02166V4.85579C0.856445 4.96641 0.894702 5.07249 0.9628 5.1507C1.0309 5.22892 1.12326 5.27286 1.21956 5.27286H10.6607C10.757 5.27286 10.8493 5.22892 10.9174 5.1507C10.9855 5.07249 11.0238 4.96641 11.0238 4.85579V4.02166C11.0238 3.91105 10.9855 3.80497 10.9174 3.72675C10.8493 3.64854 10.757 3.6046 10.6607 3.6046ZM10.6607 10.2777H1.21956C1.12326 10.2777 1.0309 10.3216 0.9628 10.3998C0.894702 10.478 0.856445 10.5841 0.856445 10.6947V11.5289C0.856445 11.6395 0.894702 11.7455 0.9628 11.8238C1.0309 11.902 1.12326 11.9459 1.21956 11.9459H10.6607C10.757 11.9459 10.8493 11.902 10.9174 11.8238C10.9855 11.7455 11.0238 11.6395 11.0238 11.5289V10.6947C11.0238 10.5841 10.9855 10.478 10.9174 10.3998C10.8493 10.3216 10.757 10.2777 10.6607 10.2777Z" fill="black"/>
</svg>
