<svg width="12" height="12" viewBox="0 0 12 12" fill="none" xmlns="http://www.w3.org/2000/svg">
<path d="M1.28353 5.27286H10.7246C10.8209 5.27286 10.9133 5.22892 10.9814 5.1507C11.0495 5.07249 11.0877 4.96641 11.0877 4.85579V4.02166C11.0877 3.91105 11.0495 3.80497 10.9814 3.72675C10.9133 3.64854 10.8209 3.6046 10.7246 3.6046H1.28353C1.18722 3.6046 1.09486 3.64854 1.02677 3.72675C0.958667 3.80497 0.92041 3.91105 0.92041 4.02166L0.92041 4.85579C0.92041 4.96641 0.958667 5.07249 1.02677 5.1507C1.09486 5.22892 1.18722 5.27286 1.28353 5.27286ZM10.7246 10.2777H1.28353C1.18722 10.2777 1.09486 10.3216 1.02677 10.3998C0.958667 10.478 0.92041 10.5841 0.92041 10.6947L0.92041 11.5289C0.92041 11.6395 0.958667 11.7455 1.02677 11.8238C1.09486 11.902 1.18722 11.9459 1.28353 11.9459H10.7246C10.8209 11.9459 10.9133 11.902 10.9814 11.8238C11.0495 11.7455 11.0877 11.6395 11.0877 11.5289V10.6947C11.0877 10.5841 11.0495 10.478 10.9814 10.3998C10.9133 10.3216 10.8209 10.2777 10.7246 10.2777ZM10.7966 0.268067H4.84278C4.80453 0.268032 4.76665 0.276659 4.73131 0.293454C4.69597 0.310249 4.66386 0.334882 4.63682 0.365944C4.60977 0.397006 4.58833 0.433887 4.5737 0.474478C4.55908 0.515069 4.55157 0.558573 4.5516 0.602501V1.6019C4.55157 1.64582 4.55908 1.68933 4.5737 1.72992C4.58833 1.77051 4.60977 1.80739 4.63682 1.83845C4.66386 1.86952 4.69597 1.89415 4.73131 1.91094C4.76665 1.92774 4.80453 1.93637 4.84278 1.93633H10.7966C10.8348 1.93637 10.8727 1.92774 10.908 1.91094C10.9434 1.89415 10.9755 1.86952 11.0025 1.83845C11.0296 1.80739 11.051 1.77051 11.0656 1.72992C11.0803 1.68933 11.0878 1.64582 11.0877 1.6019V0.602501C11.0878 0.558573 11.0803 0.515069 11.0656 0.474478C11.051 0.433887 11.0296 0.397006 11.0025 0.365944C10.9755 0.334882 10.9434 0.310249 10.908 0.293454C10.8727 0.276659 10.8348 0.268032 10.7966 0.268067ZM10.7966 6.94112H4.84278C4.80453 6.94109 4.76665 6.94972 4.73131 6.96651C4.69597 6.98331 4.66386 7.00794 4.63682 7.039C4.60977 7.07006 4.58833 7.10695 4.5737 7.14754C4.55908 7.18813 4.55157 7.23163 4.5516 7.27556V8.27495C4.55157 8.31888 4.55908 8.36239 4.5737 8.40298C4.58833 8.44357 4.60977 8.48045 4.63682 8.51151C4.66386 8.54257 4.69597 8.56721 4.73131 8.584C4.76665 8.6008 4.80453 8.60942 4.84278 8.60939H10.7966C10.8348 8.60942 10.8727 8.6008 10.908 8.584C10.9434 8.56721 10.9755 8.54257 11.0025 8.51151C11.0296 8.48045 11.051 8.44357 11.0656 8.40298C11.0803 8.36239 11.0878 8.31888 11.0877 8.27495V7.27556C11.0878 7.23163 11.0803 7.18813 11.0656 7.14754C11.051 7.10695 11.0296 7.07006 11.0025 7.039C10.9755 7.00794 10.9434 6.98331 10.908 6.96651C10.8727 6.94972 10.8348 6.94109 10.7966 6.94112Z" fill="black"/>
</svg>
