<svg width="24" height="25" viewBox="0 0 24 25" fill="none" xmlns="http://www.w3.org/2000/svg">
<path fill-rule="evenodd" clip-rule="evenodd" d="M18.5183 14.0837V10.428C18.5183 7.14844 16.4977 4.38576 13.7606 3.55492C13.4896 2.80257 12.8275 2.27246 12.0452 2.27246C11.2629 2.27246 10.6008 2.80257 10.3298 3.55492C7.59263 4.38678 5.57211 7.14844 5.57211 10.428V14.0837L3.9936 15.8239C3.81975 16.0145 3.72266 16.2734 3.72266 16.5446V18.5835C3.72266 19.1472 4.13601 19.6029 4.64738 19.6029H19.443C19.9544 19.6029 20.3677 19.1472 20.3677 18.5835V16.5446C20.3677 16.2734 20.2706 16.0145 20.0968 15.8239L18.5183 14.0837ZM18.518 17.5638H5.57185V16.9664L7.15036 15.2263C7.32421 15.0356 7.42131 14.7767 7.42131 14.5055V10.4278C7.42131 7.61717 9.49547 5.33057 12.0449 5.33057C14.5944 5.33057 16.6686 7.61717 16.6686 10.4278V14.5055C16.6686 14.7767 16.7657 15.0356 16.9395 15.2263L18.518 16.9664V17.5638ZM12.0455 22.6609C13.2578 22.6609 14.2713 21.8107 14.6514 20.6221H9.43962C9.81968 21.8107 10.8332 22.6609 12.0455 22.6609Z" fill="#555B6D"/>
</svg>
