<svg width="10" height="13" viewBox="0 0 10 13" fill="none" xmlns="http://www.w3.org/2000/svg">
<path d="M4.83561 10.5572C5.19294 10.5572 5.48361 10.5118 5.70761 10.4212C5.93694 10.3305 6.11561 10.2132 6.24361 10.0692C6.37161 9.92517 6.45961 9.7625 6.50761 9.58117C6.55561 9.39983 6.57961 9.21583 6.57961 9.02917C6.57961 8.81583 6.55028 8.62383 6.49161 8.45317C6.43828 8.2825 6.34228 8.1385 6.20361 8.02117C6.07028 7.90383 5.89161 7.81317 5.66761 7.74917C5.44361 7.68517 5.16094 7.65317 4.81961 7.65317H2.93161V10.5572H4.83561ZM2.93161 2.96517V5.84517H4.33961C4.63828 5.84517 4.90761 5.82383 5.14761 5.78117C5.38761 5.7385 5.59028 5.66383 5.75561 5.55717C5.92628 5.4505 6.05428 5.30383 6.13961 5.11717C6.23028 4.9305 6.27561 4.69583 6.27561 4.41317C6.27561 4.13583 6.24094 3.9065 6.17161 3.72517C6.10228 3.5385 5.99561 3.38917 5.85161 3.27717C5.70761 3.16517 5.52361 3.08517 5.29961 3.03717C5.08094 2.98917 4.81961 2.96517 4.51561 2.96517H2.93161ZM4.51561 0.941168C5.32094 0.941168 6.00628 1.01583 6.57161 1.16517C7.13694 1.3145 7.59828 1.52517 7.95561 1.79717C8.31294 2.06917 8.57161 2.39983 8.73161 2.78917C8.89694 3.1785 8.97961 3.61317 8.97961 4.09317C8.97961 4.3545 8.94228 4.60783 8.86761 4.85317C8.79294 5.09317 8.67561 5.31983 8.51561 5.53317C8.35561 5.74117 8.15028 5.93317 7.89961 6.10917C7.64894 6.28517 7.34761 6.43717 6.99561 6.56517C7.76361 6.75183 8.33161 7.05317 8.69961 7.46917C9.06761 7.88517 9.25161 8.42383 9.25161 9.08517C9.25161 9.58117 9.15561 10.0425 8.96361 10.4692C8.77161 10.8958 8.48894 11.2692 8.11561 11.5892C7.74761 11.9038 7.29161 12.1518 6.74761 12.3332C6.20361 12.5092 5.58228 12.5972 4.88361 12.5972H0.227609V0.941168H4.51561Z" fill="black"/>
</svg>
