<svg width="8" height="11" viewBox="0 0 8 11" fill="none" xmlns="http://www.w3.org/2000/svg">
<path d="M7.07373 0.519043C7.15706 0.555501 7.19873 0.602376 7.19873 0.659668C7.19873 0.74821 7.14144 0.797689 7.02686 0.808105C6.59456 0.849772 6.28988 0.933105 6.11279 1.05811C5.93571 1.1779 5.78988 1.3654 5.67529 1.62061C5.56071 1.87061 5.32373 2.64144 4.96436 3.93311C4.61019 5.21956 4.30029 6.41488 4.03467 7.51904C3.77425 8.62321 3.64404 9.27946 3.64404 9.48779C3.64404 9.95654 3.92008 10.2144 4.47217 10.2612C4.71175 10.2821 4.83154 10.342 4.83154 10.4409C4.83154 10.5347 4.73258 10.5815 4.53467 10.5815L1.81592 10.5347L0.769043 10.5581C0.607585 10.5581 0.526855 10.5112 0.526855 10.4175C0.526855 10.3289 0.651855 10.2664 0.901855 10.23C1.3654 10.1675 1.69092 10.0373 1.87842 9.83936C2.06592 9.64144 2.22738 9.25342 2.36279 8.67529L3.15186 5.63623L3.85498 2.89404C4.04248 2.15446 4.13623 1.72738 4.13623 1.61279C4.13623 1.08154 3.76123 0.789876 3.01123 0.737793C2.85498 0.722168 2.77686 0.66748 2.77686 0.57373C2.77686 0.51123 2.80029 0.472168 2.84717 0.456543C2.89404 0.440918 3.02425 0.433105 3.23779 0.433105L7.07373 0.519043Z" fill="black"/>
</svg>
