<svg width="12" height="12" viewBox="0 0 12 12" fill="none" xmlns="http://www.w3.org/2000/svg">
<path d="M10.7564 10.2777H1.31527C1.21896 10.2777 1.1266 10.3216 1.0585 10.3998C0.990406 10.478 0.952148 10.5841 0.952148 10.6947L0.952148 11.5289C0.952148 11.6395 0.990406 11.7455 1.0585 11.8238C1.1266 11.902 1.21896 11.9459 1.31527 11.9459H10.7564C10.8527 11.9459 10.945 11.902 11.0131 11.8238C11.0812 11.7455 11.1195 11.6395 11.1195 11.5289V10.6947C11.1195 10.5841 11.0812 10.478 11.0131 10.3998C10.945 10.3216 10.8527 10.2777 10.7564 10.2777ZM10.7564 6.94112H1.31527C1.21896 6.94112 1.1266 6.98507 1.0585 7.06328C0.990406 7.1415 0.952148 7.24758 0.952148 7.35819L0.952148 8.19232C0.952148 8.30294 0.990406 8.40902 1.0585 8.48723C1.1266 8.56545 1.21896 8.60939 1.31527 8.60939H10.7564C10.8527 8.60939 10.945 8.56545 11.0131 8.48723C11.0812 8.40902 11.1195 8.30294 11.1195 8.19232V7.35819C11.1195 7.24758 11.0812 7.1415 11.0131 7.06328C10.945 6.98507 10.8527 6.94112 10.7564 6.94112ZM10.7564 3.6046H1.31527C1.21896 3.6046 1.1266 3.64854 1.0585 3.72675C0.990406 3.80497 0.952148 3.91105 0.952148 4.02166L0.952148 4.85579C0.952148 4.96641 0.990406 5.07249 1.0585 5.1507C1.1266 5.22892 1.21896 5.27286 1.31527 5.27286H10.7564C10.8527 5.27286 10.945 5.22892 11.0131 5.1507C11.0812 5.07249 11.1195 4.96641 11.1195 4.85579V4.02166C11.1195 3.91105 11.0812 3.80497 11.0131 3.72675C10.945 3.64854 10.8527 3.6046 10.7564 3.6046ZM10.7564 0.268066H1.31527C1.21896 0.268066 1.1266 0.312007 1.0585 0.390222C0.990406 0.468437 0.952148 0.57452 0.952148 0.685133L0.952148 1.51926C0.952148 1.62988 0.990406 1.73596 1.0585 1.81418C1.1266 1.89239 1.21896 1.93633 1.31527 1.93633H10.7564C10.8527 1.93633 10.945 1.89239 11.0131 1.81418C11.0812 1.73596 11.1195 1.62988 11.1195 1.51926V0.685133C11.1195 0.57452 11.0812 0.468437 11.0131 0.390222C10.945 0.312007 10.8527 0.268066 10.7564 0.268066Z" fill="black"/>
</svg>
