<svg width="17" height="17" viewBox="0 0 17 17" fill="none" xmlns="http://www.w3.org/2000/svg">
<path fill-rule="evenodd" clip-rule="evenodd" d="M6.8432 12.4673C8.08344 12.4712 9.22717 12.0419 10.1428 11.327L13.0714 14.3331L14.0294 13.3721L11.1008 10.3661C11.8166 9.44462 12.2529 8.28913 12.2633 7.03073C12.2883 4.02377 9.89738 1.56954 6.93384 1.56016C3.9703 1.55078 1.53869 3.98975 1.5137 6.9967C1.48871 10.0037 3.87966 12.4579 6.8432 12.4673ZM6.92132 2.92357C9.14448 2.93059 10.9372 4.77075 10.9185 7.02647C10.8997 9.2822 9.07654 11.1109 6.85338 11.1039C4.63022 11.0969 2.8375 9.25672 2.85624 7.00099C2.87497 4.74526 4.69816 2.91654 6.92132 2.92357Z" fill="#74788D"/>
<path fill-rule="evenodd" clip-rule="evenodd" d="M7.84522 6.05454C8.09821 6.31439 8.23626 6.65687 8.2336 7.01922L9.57864 7.02462C9.58396 6.29923 9.3092 5.61427 8.80322 5.09525C7.79258 4.06132 6.02722 4.05424 5.00215 5.08L5.94468 6.04828C6.45957 5.53404 7.34056 5.53894 7.84522 6.05454Z" fill="#74788D"/>
</svg>
