<svg width="26" height="15" viewBox="0 0 26 15" fill="none" xmlns="http://www.w3.org/2000/svg">
<path d="M12.3031 12.1127C12.3031 13.2905 11.3101 14.2742 10.049 14.2742C8.78785 14.2742 7.79492 13.2905 7.79492 12.1127C7.79492 10.9349 8.78785 9.95117 10.049 9.95117C11.3101 9.95117 12.3031 10.9349 12.3031 12.1127Z" stroke="white"/>
<path d="M22.6624 12.1127C22.6624 13.2905 21.6695 14.2742 20.4084 14.2742C19.1472 14.2742 18.1543 13.2905 18.1543 12.1127C18.1543 10.9349 19.1472 9.95117 20.4084 9.95117C21.6695 9.95117 22.6624 10.9349 22.6624 12.1127Z" stroke="white"/>
<path d="M6.63867 0.959473H19.0976" stroke="white" stroke-linecap="round"/>
<path d="M3.75391 4.00098H8.60632" stroke="white" stroke-linecap="round"/>
<path d="M1 6.9165H6.377" stroke="white" stroke-linecap="round"/>
<path d="M2.44141 9.45117H5.85121" stroke="white" stroke-linecap="round"/>
<path d="M16.2129 0.959473L16.2129 6.53596" stroke="white" stroke-linecap="round"/>
<path d="M16.2129 6.53613H23.8194" stroke="white" stroke-linecap="round"/>
<path d="M5.06641 11.9219H7.29589" stroke="white" stroke-linecap="round"/>
<path d="M12.8027 11.9854L17.6551 11.9854" stroke="white" stroke-linecap="round"/>
<path d="M23.1641 11.9854L25.0001 11.9854" stroke="white" stroke-linecap="round"/>
<path d="M25 7.67578L25 11.9849" stroke="white" stroke-linecap="round"/>
<path d="M19.0977 0.959473L24.9992 7.6766" stroke="white" stroke-linecap="round"/>
</svg>
