<svg width="12" height="17" viewBox="0 0 12 17" fill="none" xmlns="http://www.w3.org/2000/svg">
<path d="M6.12677 10.3652C6.60144 10.3652 7.02544 10.2852 7.39877 10.1252C7.7721 9.96517 8.08677 9.74117 8.34277 9.45317C8.6041 9.16517 8.80144 8.82117 8.93477 8.42117C9.07344 8.02117 9.14277 7.58117 9.14277 7.10117V0.133167H10.6868V7.10117C10.6868 7.7625 10.5801 8.37583 10.3668 8.94117C10.1588 9.5065 9.85744 9.99717 9.46277 10.4132C9.07344 10.8238 8.5961 11.1465 8.03077 11.3812C7.46544 11.6158 6.83077 11.7332 6.12677 11.7332C5.42277 11.7332 4.7881 11.6158 4.22277 11.3812C3.65744 11.1465 3.17744 10.8238 2.78277 10.4132C2.3881 9.99717 2.0841 9.5065 1.87077 8.94117C1.66277 8.37583 1.55877 7.7625 1.55877 7.10117V0.133167H3.10277V7.09317C3.10277 7.57317 3.16944 8.01317 3.30277 8.41317C3.44144 8.81317 3.63877 9.15717 3.89477 9.44517C4.1561 9.73317 4.47344 9.95983 4.84677 10.1252C5.22544 10.2852 5.6521 10.3652 6.12677 10.3652Z" fill="black"/>
<path d="M0.23877 15.6772H12.0068V16.3892H0.23877V15.6772Z" fill="black"/>
</svg>
